<svg width="24" height="25" viewBox="0 0 24 25" fill="none" xmlns="http://www.w3.org/2000/svg">
<path fill-rule="evenodd" clip-rule="evenodd" d="M12 4.65405C14.6693 4.65405 14.9854 4.66421 16.0396 4.71231C17.0142 4.75679 17.5436 4.91965 17.8959 5.05651C18.3625 5.23786 18.6955 5.45453 19.0453 5.80433C19.3951 6.15413 19.6118 6.48719 19.7931 6.95378C19.93 7.30608 20.0929 7.8354 20.1373 8.81005C20.1854 9.86421 20.1956 10.1804 20.1956 12.8496C20.1956 15.5189 20.1854 15.8351 20.1373 16.8892C20.0929 17.8639 19.93 18.3932 19.7931 18.7455C19.6118 19.2121 19.3951 19.5452 19.0453 19.895C18.6955 20.2448 18.3625 20.4614 17.8959 20.6427C17.5436 20.7796 17.0142 20.9425 16.0396 20.987C14.9856 21.0351 14.6694 21.0452 12 21.0452C9.33055 21.0452 9.0144 21.0351 7.96044 20.987C6.98575 20.9425 6.45643 20.7796 6.10417 20.6427C5.63754 20.4614 5.30448 20.2448 4.95468 19.895C4.60488 19.5452 4.38821 19.2121 4.2069 18.7455C4.07 18.3932 3.90714 17.8639 3.86266 16.8893C3.81456 15.8351 3.8044 15.5189 3.8044 12.8496C3.8044 10.1804 3.81456 9.86421 3.86266 8.81008C3.90714 7.8354 4.07 7.30608 4.2069 6.95378C4.38821 6.48719 4.60488 6.15413 4.95468 5.80433C5.30448 5.45453 5.63754 5.23786 6.10417 5.05651C6.45643 4.91965 6.98575 4.75679 7.9604 4.71231C9.01456 4.66421 9.33071 4.65405 12 4.65405M12 2.85278C9.285 2.85278 8.9446 2.86429 7.87833 2.91294C6.81425 2.96151 6.08758 3.13048 5.45167 3.37762C4.79428 3.6331 4.23678 3.97493 3.68103 4.53068C3.12528 5.08643 2.78345 5.64393 2.52798 6.30131C2.28083 6.93723 2.11186 7.66389 2.06329 8.72798C2.01464 9.79421 2.00317 10.1346 2.00317 12.8496C2.00317 15.5646 2.01464 15.9051 2.06329 16.9713C2.11186 18.0354 2.28083 18.7621 2.52798 19.398C2.78345 20.0553 3.12528 20.6129 3.68103 21.1686C4.23678 21.7244 4.79428 22.0662 5.45167 22.3217C6.08758 22.5688 6.81425 22.7378 7.87833 22.7864C8.9446 22.835 9.285 22.8465 12 22.8465C14.715 22.8465 15.0554 22.835 16.1217 22.7864C17.1858 22.7378 17.9124 22.5688 18.5483 22.3217C19.2057 22.0662 19.7632 21.7244 20.319 21.1686C20.8747 20.6129 21.2165 20.0554 21.472 19.398C21.7192 18.7621 21.8881 18.0354 21.9367 16.9713C21.9854 15.9051 21.9969 15.5646 21.9969 12.8496C21.9969 10.1346 21.9854 9.79421 21.9367 8.72798C21.8881 7.66389 21.7192 6.93723 21.472 6.30131C21.2165 5.64393 20.8747 5.08643 20.319 4.53068C19.7632 3.97493 19.2057 3.6331 18.5483 3.37762C17.9124 3.13048 17.1858 2.96151 16.1217 2.91294C15.0554 2.86429 14.715 2.85278 12 2.85278" fill="#5F6368"/>
<path fill-rule="evenodd" clip-rule="evenodd" d="M12 7.71606C9.16483 7.71606 6.86646 10.0144 6.86646 12.8496C6.86646 15.6848 9.16483 17.9831 12 17.9831C14.8351 17.9831 17.1335 15.6848 17.1335 12.8496C17.1335 10.0144 14.8351 7.71606 12 7.71606ZM12 16.1819C10.1596 16.1819 8.66769 14.69 8.66769 12.8496C8.66769 11.0092 10.1596 9.51729 12 9.51729C13.8403 9.51729 15.3323 11.0092 15.3323 12.8496C15.3323 14.69 13.8403 16.1819 12 16.1819V16.1819Z" fill="#5F6368"/>
<path fill-rule="evenodd" clip-rule="evenodd" d="M18.536 7.51332C18.536 8.17586 17.9989 8.71297 17.3364 8.71297C16.6738 8.71297 16.1367 8.17586 16.1367 7.51332C16.1367 6.85078 16.6738 6.31372 17.3364 6.31372C17.9989 6.31372 18.536 6.85078 18.536 7.51332" fill="#5F6368"/>
</svg>
