<svg width="24" height="24" viewBox="0 0 24 24" fill="none" xmlns="http://www.w3.org/2000/svg">
  <path d="M18.582 6.2105C17.448 5.4755 16.6395 4.289 16.377 2.9135C16.3245 2.6195 16.293 2.315 16.293 2H12.681V16.469C12.618 18.086 11.2845 19.388 9.6465 19.388C9.1425 19.388 8.6595 19.262 8.2395 19.0415C7.2735 18.5375 6.612 17.519 6.612 16.3535C6.612 14.684 7.977 13.319 9.6465 13.319C9.9615 13.319 10.2555 13.3715 10.539 13.4555V9.77C10.245 9.728 9.951 9.707 9.6465 9.707C5.982 9.707 3 12.689 3 16.3535C3 18.6005 4.1235 20.5955 5.835 21.7925C6.9165 22.5485 8.229 23 9.6465 23C13.311 23 16.293 20.018 16.293 16.3535V9.014C17.7105 10.0325 19.443 10.631 21.312 10.631V7.019C20.304 7.019 19.3695 6.7145 18.582 6.2105Z" fill="#5F6368"/>
</svg>