<svg width="24" height="25" viewBox="0 0 24 25" fill="none" xmlns="http://www.w3.org/2000/svg">
<path fill-rule="evenodd" clip-rule="evenodd" d="M20.896 22.8496C21.5056 22.8496 21.9998 22.3553 21.9998 21.7458V3.95349C21.9998 3.34374 21.5056 2.84961 20.896 2.84961H3.1038C2.49405 2.84961 2 3.34374 2 3.95349V21.7458C2 22.3553 2.49405 22.8496 3.1038 22.8496H20.896Z" fill="#5F6368"/>
<path fill-rule="evenodd" clip-rule="evenodd" d="M15.7941 22.8495V15.1076H18.3928L18.7819 12.0904H15.7941V10.164C15.7941 9.29044 16.0367 8.69508 17.2894 8.69508L18.8871 8.69441V5.99583C18.6107 5.95913 17.6623 5.87695 16.559 5.87695C14.2554 5.87695 12.6784 7.28302 12.6784 9.86527V12.0904H10.0731V15.1076H12.6784V22.8495H15.7941Z" fill="white"/>
</svg>
